<svg width="301" height="42" viewBox="0 0 301 42" fill="none" xmlns="http://www.w3.org/2000/svg">
<path d="M6.05027 38.1901L9.08044 41H26.2514L30.2916 35.3802H33.8268L38.372 41H56.048L58.5731 36.7851V34.4435H63.1184V19.4573H58.5731V17.1158L54.5329 13.3692H9.08044L6.05027 17.1158V19.4573H1V34.4435H6.05027V38.1901Z" stroke="white"/>
<path d="M32.1173 5.09345C32.1173 5.09345 30.0097 1 26.5849 1C24.2086 1 22.2819 2.83353 22.2819 5.09345C22.2819 7.35338 24.2086 9.1869 26.5849 9.1869C28.2318 9.1869 29.7023 8.23134 30.7122 7.14018L32.1173 5.09345ZM32.1173 5.09345C32.1173 5.09345 34.2249 9.1869 37.6497 9.1869C40.026 9.1869 41.9527 7.35338 41.9527 5.09345C41.9527 2.83353 40.026 1 37.6497 1C36.0027 1 34.7914 1.79228 33.613 3.11275L32.1173 5.09345Z" stroke="white" stroke-miterlimit="10" stroke-linecap="round"/>
<path d="M79.6453 35.2197C78.3513 35.2197 77.3097 34.7111 76.5203 33.6938C75.7309 32.6685 75.3362 31.0083 75.3362 28.7134V19.375C75.3362 18.4147 75.4257 17.5562 75.6048 16.7993C75.7919 16.0425 76.0768 15.4036 76.4592 14.8828C76.8499 14.3538 77.3544 13.9551 77.9729 13.6865C78.5914 13.4098 79.336 13.2715 80.2068 13.2715C81.1508 13.2715 81.9199 13.4139 82.5139 13.6987C83.108 13.9754 83.5637 14.3823 83.8811 14.9194C84.2066 15.4484 84.4304 16.0994 84.5525 16.8726C84.6746 17.6457 84.7356 18.5205 84.7356 19.4971V21.0229H81.6839V18.7769C81.6839 17.8084 81.5821 17.1208 81.3787 16.7139C81.1834 16.307 80.809 16.1035 80.2556 16.1035C79.6453 16.1035 79.2221 16.3436 78.9861 16.8237C78.7501 17.2957 78.6321 18.138 78.6321 19.3506V28.6646C78.6321 30.0155 78.7298 30.9839 78.9251 31.5698C79.1285 32.1476 79.5476 32.4365 80.1824 32.4365C80.8009 32.4365 81.2363 32.1395 81.4885 31.5454C81.749 30.9432 81.8792 29.9422 81.8792 28.5425V25.6494H80.2312V23.269H84.7356V35H83.2708L82.7703 32.8882C82.5912 33.6287 82.2088 34.2025 81.6228 34.6094C81.045 35.0163 80.3858 35.2197 79.6453 35.2197ZM88.5618 35V13.5156H93.9695C95.0925 13.5156 95.9308 13.7354 96.4841 14.1748C97.0375 14.6143 97.3997 15.2572 97.5706 16.1035C97.7496 16.9499 97.8391 17.9834 97.8391 19.2041C97.8391 20.4655 97.7089 21.4583 97.4485 22.1826C97.1962 22.8988 96.6754 23.3789 95.886 23.623C96.2604 23.6882 96.5737 23.8428 96.8259 24.0869C97.0782 24.3229 97.2817 24.6729 97.4363 25.1367C97.5909 25.5924 97.7008 26.1825 97.7659 26.9067C97.8391 27.6229 97.8757 28.5018 97.8757 29.5435C97.8757 29.6248 97.8757 29.8527 97.8757 30.2271C97.8757 30.6014 97.8757 31.0449 97.8757 31.5576C97.8839 32.0622 97.892 32.5667 97.9002 33.0713C97.9083 33.5758 97.9205 34.0072 97.9368 34.3652C97.9531 34.7233 97.9734 34.9349 97.9978 35H94.7263C94.7019 34.9593 94.6816 34.7518 94.6653 34.3774C94.6572 33.995 94.645 33.5107 94.6287 32.9248C94.6205 32.3389 94.6124 31.7082 94.6043 31.0327C94.6043 30.3573 94.6043 29.694 94.6043 29.043C94.6043 28.3838 94.6043 27.8019 94.6043 27.2974C94.6043 26.6545 94.5554 26.1702 94.4578 25.8447C94.3683 25.5111 94.1974 25.2791 93.9451 25.1489C93.7009 25.0187 93.3469 24.9414 92.8831 24.917L91.8333 24.856V35H88.5618ZM91.8455 22.3169H93.1516C93.5504 22.3169 93.8515 22.2274 94.0549 22.0483C94.2665 21.8693 94.409 21.5397 94.4822 21.0596C94.5636 20.5794 94.6043 19.8877 94.6043 18.9844V18.8501C94.6043 18.0933 94.5676 17.5114 94.4944 17.1045C94.4212 16.6976 94.2665 16.4168 94.0305 16.2622C93.8027 16.1076 93.4446 16.0303 92.9563 16.0303H91.8455V22.3169ZM100.152 35L103.216 13.5156H107.537L110.796 35H107.744L107.232 31.167H103.765L103.301 35H100.152ZM104.082 28.5425H106.89L105.449 17.7515H105.401L104.082 28.5425ZM117.418 35.2441C116.523 35.2441 115.774 35.1058 115.172 34.8291C114.578 34.5443 114.106 34.1333 113.756 33.5962C113.414 33.0509 113.17 32.3918 113.023 31.6187C112.877 30.8374 112.803 29.9504 112.803 28.9575V27.041H115.904V29.2017C115.904 30.3573 116.002 31.1873 116.197 31.6919C116.392 32.1965 116.779 32.4487 117.357 32.4487C117.747 32.4487 118.04 32.3592 118.236 32.1802C118.439 31.993 118.573 31.7 118.638 31.3013C118.712 30.8944 118.748 30.3654 118.748 29.7144C118.748 28.9087 118.577 28.1722 118.236 27.5049C117.902 26.8376 117.393 26.1458 116.71 25.4297L115.123 23.7939C114.683 23.3382 114.285 22.854 113.927 22.3413C113.577 21.8286 113.296 21.259 113.084 20.6323C112.881 19.9976 112.779 19.2896 112.779 18.5083C112.779 17.3771 112.917 16.4209 113.194 15.6396C113.471 14.8584 113.939 14.2684 114.598 13.8696C115.257 13.4627 116.16 13.2593 117.308 13.2593C118.171 13.2593 118.879 13.3936 119.432 13.6621C119.993 13.9225 120.429 14.3091 120.738 14.8218C121.055 15.3263 121.279 15.9448 121.409 16.6772C121.54 17.4015 121.605 18.2316 121.605 19.1675V20.498H118.59V18.96C118.59 18.3089 118.553 17.7677 118.48 17.3364C118.415 16.9051 118.289 16.5837 118.101 16.3721C117.914 16.1523 117.642 16.0425 117.283 16.0425C116.942 16.0425 116.665 16.1198 116.453 16.2744C116.242 16.4209 116.087 16.6528 115.99 16.9702C115.9 17.2795 115.855 17.6823 115.855 18.1787C115.855 18.6263 115.912 19.0129 116.026 19.3384C116.14 19.6639 116.315 19.9772 116.551 20.2783C116.787 20.5794 117.08 20.9172 117.43 21.2915L119.2 23.208C120.046 24.1195 120.706 25.0675 121.178 26.0522C121.65 27.0369 121.886 28.1356 121.886 29.3481C121.886 30.634 121.747 31.7163 121.47 32.5952C121.194 33.466 120.73 34.1252 120.079 34.5728C119.428 35.0203 118.541 35.2441 117.418 35.2441ZM127.14 35V26.4185L123.539 13.5156H126.664L128.788 21.5479H128.837L130.729 13.5156H133.842L130.411 26.4185V35H127.14ZM140.927 35.2441C139.812 35.2441 138.901 35.0081 138.193 34.5361C137.493 34.0641 136.976 33.3643 136.642 32.4365C136.309 31.5088 136.142 30.3613 136.142 28.9941V19.1675C136.142 17.9305 136.305 16.8726 136.63 15.9937C136.956 15.1147 137.472 14.4393 138.18 13.9673C138.888 13.4953 139.816 13.2593 140.964 13.2593C141.826 13.2593 142.555 13.3936 143.149 13.6621C143.743 13.9307 144.223 14.3213 144.589 14.834C144.955 15.3385 145.22 15.957 145.383 16.6895C145.553 17.4137 145.639 18.2397 145.639 19.1675V28.9941C145.639 30.3613 145.476 31.5088 145.151 32.4365C144.833 33.3643 144.329 34.0641 143.637 34.5361C142.945 35.0081 142.042 35.2441 140.927 35.2441ZM140.927 32.4121C141.334 32.4121 141.639 32.29 141.843 32.0459C142.046 31.8018 142.18 31.4315 142.245 30.9351C142.319 30.4305 142.355 29.7957 142.355 29.0308V19.021C142.355 18.0851 142.266 17.3649 142.087 16.8604C141.916 16.3477 141.541 16.0913 140.964 16.0913C140.37 16.0913 139.967 16.3395 139.755 16.8359C139.544 17.3242 139.438 18.0485 139.438 19.0088V29.0308C139.438 29.812 139.47 30.4549 139.535 30.9595C139.609 31.4559 139.751 31.8221 139.963 32.0581C140.182 32.2941 140.504 32.4121 140.927 32.4121ZM149.367 35V13.5156H151.931L156.484 26.4062L156.252 20.5469V13.5156H159.194V35H156.875L152.199 21.6577L152.383 27.2974V35H149.367ZM170.606 35L167.274 13.5156H170.386L171.79 23.2202L172.657 30.0562H172.742L173.487 23.2202L174.659 13.5156H177.711L174.647 35H170.606ZM180.524 35V13.5156H185.931C187.054 13.5156 187.893 13.7354 188.446 14.1748C188.999 14.6143 189.362 15.2572 189.532 16.1035C189.712 16.9499 189.801 17.9834 189.801 19.2041C189.801 20.4655 189.671 21.4583 189.41 22.1826C189.158 22.8988 188.637 23.3789 187.848 23.623C188.222 23.6882 188.536 23.8428 188.788 24.0869C189.04 24.3229 189.244 24.6729 189.398 25.1367C189.553 25.5924 189.663 26.1825 189.728 26.9067C189.801 27.6229 189.838 28.5018 189.838 29.5435C189.838 29.6248 189.838 29.8527 189.838 30.2271C189.838 30.6014 189.838 31.0449 189.838 31.5576C189.846 32.0622 189.854 32.5667 189.862 33.0713C189.87 33.5758 189.882 34.0072 189.899 34.3652C189.915 34.7233 189.935 34.9349 189.96 35H186.688C186.664 34.9593 186.643 34.7518 186.627 34.3774C186.619 33.995 186.607 33.5107 186.591 32.9248C186.582 32.3389 186.574 31.7082 186.566 31.0327C186.566 30.3573 186.566 29.694 186.566 29.043C186.566 28.3838 186.566 27.8019 186.566 27.2974C186.566 26.6545 186.517 26.1702 186.42 25.8447C186.33 25.5111 186.159 25.2791 185.907 25.1489C185.663 25.0187 185.309 24.9414 184.845 24.917L183.795 24.856V35H180.524ZM183.807 22.3169H185.114C185.512 22.3169 185.813 22.2274 186.017 22.0483C186.228 21.8693 186.371 21.5397 186.444 21.0596C186.525 20.5794 186.566 19.8877 186.566 18.9844V18.8501C186.566 18.0933 186.53 17.5114 186.456 17.1045C186.383 16.6976 186.228 16.4168 185.992 16.2622C185.765 16.1076 185.407 16.0303 184.918 16.0303H183.807V22.3169Z" fill="white"/>
</svg>
